<svg width="50" height="34" viewBox="0 0 50 34" fill="none" xmlns="http://www.w3.org/2000/svg">
<path d="M14.2722 24.8325C11.7623 24.8325 9.72721 22.7831 9.72721 20.2554C9.72721 17.7278 11.7623 15.6784 14.2722 15.6784C16.3385 15.6784 18.0827 17.0669 18.6348 18.9677L26.4937 14.3507C24.3073 9.76991 19.6566 6.60742 14.2722 6.60742C6.78733 6.60742 0.719727 12.7183 0.719727 20.2554C0.719727 27.7931 6.78733 33.9034 14.2722 33.9034C21.7572 33.9034 27.8248 27.7931 27.8248 20.2554H18.8173C18.8173 22.7831 16.7822 24.8325 14.2722 24.8325Z" fill="#42454A"/>
<path d="M38.4706 9.53418C32.5913 9.53418 27.8252 14.3344 27.8252 20.2546H35.6443C35.6443 18.6824 36.9094 17.4084 38.4706 17.4084C40.0312 17.4084 41.2968 18.6824 41.2968 20.2546C41.2968 21.8267 40.0312 23.1007 38.4706 23.1007C37.1209 23.1007 35.9923 22.1484 35.7115 20.874L28.8702 24.8928C30.588 28.491 34.2408 30.9749 38.4706 30.9749C44.3499 30.9749 49.116 26.1753 49.116 20.2546C49.116 14.3344 44.3499 9.53418 38.4706 9.53418Z" fill="#42454A"/>
<path d="M27.1837 8.11192C29.8221 8.11192 32.4438 7.73963 34.9944 7.05989C36.1033 6.76435 37.2681 6.60685 38.4695 6.60685C39.1221 6.60685 39.7637 6.6532 40.3914 6.7432C40.0799 5.11936 39.2242 3.69042 38.0237 2.65668C36.7788 1.5846 35.1631 0.9375 33.3967 0.9375H15.25C17.5394 5.20937 22.0252 8.11192 27.1837 8.11192Z" fill="#42454A"/>
</svg>
